<svg width="18" height="18" viewBox="0 0 18 18" fill="none" xmlns="http://www.w3.org/2000/svg">
<g clip-path="url(#clip0_114_25)">
<path d="M8.15976 0.03866C6.46874 0.189833 4.70741 0.907021 3.3539 1.99335C1.55038 3.44882 0.404288 5.50194 0.0632719 7.89256C-0.00704056 8.38475 0.00350632 9.66444 0.0843657 10.2129C0.221475 11.1902 0.509756 12.1148 0.952725 13.0043C2.1164 15.3492 4.22577 17.0543 6.77812 17.7152C8.56757 18.1793 10.5293 18.0598 12.2625 17.3848C13.4894 16.9031 14.509 16.2246 15.4512 15.2543C16.1719 14.516 16.6465 13.834 17.0859 12.9234C17.5043 12.0586 17.7539 11.257 17.9016 10.3183C18.0105 9.61522 18.0105 8.38475 17.9016 7.68163C17.7504 6.72186 17.5008 5.92381 17.0683 5.04491C16.6359 4.16249 16.1473 3.46991 15.4547 2.75272C14.7199 1.98983 13.9781 1.44491 13.0254 0.96327C11.5101 0.200378 9.86835 -0.112511 8.15976 0.03866ZM9.94921 1.56093C11.6754 1.79296 13.2258 2.57694 14.4141 3.81796C15.4652 4.91835 16.1156 6.21561 16.4004 7.7871C16.4918 8.28631 16.5094 9.341 16.4355 9.91405C16.0031 13.3453 13.3453 15.9996 9.90702 16.439C9.34101 16.5094 8.28632 16.4918 7.7871 16.4004C6.52499 16.1719 5.4914 15.7289 4.51054 15.0012C3.07265 13.9324 2.06366 12.3539 1.67343 10.582C1.53632 9.95624 1.50116 9.52382 1.52226 8.77499C1.53983 8.08241 1.58554 7.73436 1.74023 7.13319C2.50312 4.15546 5.03085 1.9371 8.10351 1.55038C8.50077 1.50116 9.54491 1.50819 9.94921 1.56093Z" fill="#C10000"/>
<path d="M6.45117 6.0785C6.07148 6.25428 5.91328 6.68319 6.08555 7.06639C6.13477 7.17889 6.40547 7.4742 7.0418 8.11053L7.92422 8.99998L7.00664 9.92108C6.14531 10.7894 6.08555 10.8562 6.03281 11.039C5.85352 11.6402 6.40195 12.1535 7.01367 11.9531C7.12266 11.918 7.35469 11.7105 8.07891 10.9933L9 10.0758L9.88945 10.9582C10.5258 11.5945 10.8211 11.8652 10.9336 11.9144C11.5664 12.1992 12.1992 11.5664 11.9145 10.9336C11.8652 10.8211 11.5945 10.5258 10.9582 9.88944L10.0758 8.99998L10.9898 8.07889C11.9918 7.0699 12.0094 7.04881 11.9813 6.67967C11.9531 6.31053 11.6895 6.04686 11.3203 6.01873C10.9512 5.99061 10.9336 6.00467 9.92109 7.00662L9 7.9242L8.11055 7.04178C7.16836 6.09959 7.05234 6.0117 6.75 6.0117C6.66211 6.0117 6.52852 6.04334 6.45117 6.0785Z" fill="#C10000"/>
</g>
<defs>
<clipPath id="clip0_114_25">
<rect width="18" height="18" fill="white"/>
</clipPath>
</defs>
</svg>
