<svg width="50" height="50" viewBox="0 0 50 50" fill="none" xmlns="http://www.w3.org/2000/svg">
<circle cx="25" cy="25" r="25" fill="white"/>
<path d="M34.54 24.7515C34.5499 30.1345 30.16 34.5362 24.7771 34.5399C22.4522 34.5416 20.3166 33.7312 18.6385 32.3767C18.2021 32.0245 18.1695 31.3705 18.566 30.974L19.0099 30.5301C19.349 30.191 19.8905 30.1538 20.2662 30.4519C21.5026 31.4331 23.0674 32.0187 24.77 32.0187C28.7767 32.0187 32.0187 28.776 32.0187 24.77C32.0187 20.7633 28.776 17.5213 24.77 17.5213C22.847 17.5213 21.1004 18.2686 19.8035 19.4884L21.803 21.4878C22.2001 21.8849 21.9188 22.5639 21.3573 22.5639H15.6303C15.2822 22.5639 15 22.2817 15 21.9335V16.2066C15 15.645 15.6789 15.3638 16.076 15.7608L18.0211 17.7059C19.775 16.0296 22.1523 15 24.77 15C30.1596 15 34.53 19.3642 34.54 24.7515ZM27.4129 27.8552L27.7999 27.3577C28.1205 26.9455 28.0462 26.3514 27.6341 26.0309L26.0306 24.7837V20.6729C26.0306 20.1507 25.6073 19.7274 25.0851 19.7274H24.4548C23.9326 19.7274 23.5093 20.1507 23.5093 20.6729V26.0169L26.0861 28.0211C26.4983 28.3416 27.0923 28.2674 27.4129 27.8552Z" fill="#7350D6"/>
</svg>
