<svg width="50" height="50" viewBox="0 0 50 50" fill="none" xmlns="http://www.w3.org/2000/svg">
<circle cx="25" cy="25" r="25" fill="white"/>
<path d="M19.8734 16.1485C19.8265 16.1014 19.7708 16.0641 19.7094 16.0386C19.6481 16.0131 19.5823 16 19.5158 16C19.4494 16 19.3836 16.0131 19.3222 16.0386C19.2609 16.0641 19.2051 16.1014 19.1582 16.1485L16.4792 18.812L15.5242 17.8814C15.4773 17.8343 15.4216 17.797 15.3602 17.7715C15.2988 17.746 15.233 17.7329 15.1666 17.7329C15.1001 17.7329 15.0344 17.746 14.973 17.7715C14.9116 17.797 14.8559 17.8343 14.809 17.8814L14.1485 18.5427C14.1014 18.5896 14.0641 18.6453 14.0386 18.7067C14.0131 18.7681 14 18.8339 14 18.9003C14 18.9668 14.0131 19.0325 14.0386 19.0939C14.0641 19.1553 14.1014 19.211 14.1485 19.2579L16.1506 21.252C16.2505 21.347 16.3832 21.4 16.521 21.4C16.6589 21.4 16.7915 21.347 16.8915 21.252L17.5474 20.5949L20.5848 17.5578C20.6795 17.4631 20.7329 17.3349 20.7337 17.201C20.7344 17.0671 20.6822 16.9384 20.5886 16.8426L19.8734 16.1485ZM19.8734 22.8457C19.8265 22.7986 19.7708 22.7613 19.7094 22.7358C19.6481 22.7103 19.5823 22.6972 19.5158 22.6972C19.4494 22.6972 19.3836 22.7103 19.3222 22.7358C19.2609 22.7613 19.2051 22.7986 19.1582 22.8457L16.4792 25.5264L15.5242 24.5966C15.4773 24.5496 15.4216 24.5122 15.3602 24.4867C15.2988 24.4613 15.233 24.4481 15.1666 24.4481C15.1001 24.4481 15.0344 24.4613 14.973 24.4867C14.9116 24.5122 14.8559 24.5496 14.809 24.5966L14.1485 25.2567C14.1014 25.3036 14.0641 25.3594 14.0386 25.4207C14.0131 25.4821 14 25.5479 14 25.6143C14 25.6808 14.0131 25.7466 14.0386 25.8079C14.0641 25.8693 14.1014 25.925 14.1485 25.9719L16.1456 27.9703C16.2454 28.0652 16.378 28.1182 16.5158 28.1182C16.6536 28.1182 16.7861 28.0652 16.886 27.9703L17.5465 27.3102L20.584 24.2719C20.6783 24.1778 20.7316 24.0503 20.7323 23.9171C20.733 23.784 20.681 23.6559 20.5878 23.5609L19.8734 22.8457ZM16.6925 30.1369C15.578 30.1369 14.6483 31.0414 14.6483 32.1563C14.6483 33.2711 15.5789 34.1756 16.6925 34.1756C17.2281 34.1756 17.7417 33.9629 18.1204 33.5842C18.4991 33.2055 18.7119 32.6918 18.7119 32.1563C18.7119 31.6207 18.4991 31.107 18.1204 30.7283C17.7417 30.3496 17.2281 30.1369 16.6925 30.1369ZM34.8669 30.81H22.7506C22.5721 30.81 22.4009 30.8809 22.2746 31.0072C22.1484 31.1334 22.0775 31.3046 22.0775 31.4831V32.8294C22.0775 33.0079 22.1484 33.1791 22.2746 33.3054C22.4009 33.4316 22.5721 33.5025 22.7506 33.5025H34.8669C35.0454 33.5025 35.2166 33.4316 35.3428 33.3054C35.4691 33.1791 35.54 33.0079 35.54 32.8294V31.4831C35.54 31.3046 35.4691 31.1334 35.3428 31.0072C35.2166 30.8809 35.0454 30.81 34.8669 30.81ZM34.8669 17.3475H22.7506C22.5721 17.3475 22.4009 17.4184 22.2746 17.5446C22.1484 17.6709 22.0775 17.8421 22.0775 18.0206V19.3669C22.0775 19.5454 22.1484 19.7166 22.2746 19.8428C22.4009 19.9691 22.5721 20.04 22.7506 20.04H34.8669C35.0454 20.04 35.2166 19.9691 35.3428 19.8428C35.4691 19.7166 35.54 19.5454 35.54 19.3669V18.0206C35.54 17.8421 35.4691 17.6709 35.3428 17.5446C35.2166 17.4184 35.0454 17.3475 34.8669 17.3475ZM34.8669 24.0787H22.7506C22.5721 24.0787 22.4009 24.1497 22.2746 24.2759C22.1484 24.4021 22.0775 24.5733 22.0775 24.7519V26.0981C22.0775 26.2766 22.1484 26.4479 22.2746 26.5741C22.4009 26.7003 22.5721 26.7713 22.7506 26.7713H34.8669C35.0454 26.7713 35.2166 26.7003 35.3428 26.5741C35.4691 26.4479 35.54 26.2766 35.54 26.0981V24.7519C35.54 24.5733 35.4691 24.4021 35.3428 24.2759C35.2166 24.1497 35.0454 24.0787 34.8669 24.0787Z" fill="#E6AD3F"/>
</svg>
