<svg width="50" height="50" viewBox="0 0 58 58" fill="none" xmlns="http://www.w3.org/2000/svg">
<g filter="url(#filter0_d_214_3)">
<circle cx="29" cy="25" r="25" fill="white"/>
<path d="M28.1881 13.0503C27.8376 13.2087 27.732 13.4487 27.732 14.0823V14.5527L27.3816 14.5863C27.1896 14.6007 26.7816 14.6679 26.4696 14.7351C23.4695 15.3544 20.8918 17.356 19.5429 20.1162C19.0437 21.129 18.6741 22.401 18.5829 23.3947L18.5493 23.7259L18.0068 23.7451C17.4212 23.7595 17.3204 23.8027 17.1044 24.0907C16.9652 24.2779 16.9652 24.7291 17.1044 24.9164C17.3204 25.2092 17.4212 25.2476 18.0068 25.262L18.5493 25.2812L18.5829 25.6268C18.6693 26.5916 19.0485 27.8829 19.5429 28.8957C20.887 31.6462 23.4695 33.6527 26.4696 34.2719C26.7816 34.3391 27.1896 34.4063 27.3768 34.4207L27.7224 34.4543L27.7416 34.9968C27.7512 35.4528 27.7704 35.5584 27.8568 35.6688C28.044 35.9232 28.1977 36 28.5001 36C28.8025 36 28.9561 35.9232 29.1433 35.6688C29.2297 35.5584 29.2489 35.4528 29.2585 34.9968L29.2777 34.4543L29.6089 34.4207C30.6074 34.3295 31.889 33.9551 32.8922 33.4607C35.6572 32.1022 37.6492 29.5341 38.2685 26.534C38.3357 26.222 38.4029 25.814 38.4173 25.6268L38.4509 25.2812L38.9933 25.262C39.5789 25.2476 39.6797 25.2092 39.8957 24.9164C40.0349 24.7291 40.0349 24.2779 39.8957 24.0907C39.6797 23.7979 39.5789 23.7595 38.9933 23.7451L38.4509 23.7259L38.4173 23.3803C38.3309 22.4154 37.9517 21.1242 37.4572 20.1114C36.2956 17.7353 34.2123 15.9064 31.6922 15.0471C31.0778 14.8359 30.1801 14.6391 29.6185 14.5863L29.2777 14.5527L29.2585 14.0103C29.2441 13.4295 29.2009 13.3239 28.9225 13.1127C28.7593 12.9927 28.3801 12.9591 28.1881 13.0503ZM27.7416 16.6024C27.756 17.1448 27.804 17.2552 28.0872 17.4664C28.2745 17.6057 28.7257 17.6057 28.9129 17.4664C29.2009 17.2552 29.2441 17.1448 29.2585 16.5976L29.2777 16.0936L29.5705 16.1224C30.785 16.2568 32.153 16.7848 33.2955 17.5529C33.9867 18.0233 34.9803 19.0169 35.4459 19.7033C36.1228 20.7114 36.6028 21.8682 36.8044 22.9771C36.9532 23.7931 36.9868 23.7259 36.4012 23.7451C35.8588 23.7595 35.7484 23.8075 35.5372 24.0907C35.3979 24.2779 35.3979 24.7291 35.5372 24.9164C35.7484 25.1996 35.8588 25.2476 36.4012 25.262C36.9868 25.2812 36.9532 25.214 36.8044 26.03C36.6028 27.1388 36.1228 28.2957 35.4459 29.3037C34.9803 29.9902 33.9867 30.9838 33.2955 31.4494C32.2922 32.1262 31.1402 32.6063 30.0265 32.8079C29.2105 32.9567 29.2777 32.9903 29.2585 32.4047C29.2441 31.8622 29.1961 31.7518 28.9129 31.5406C28.7257 31.4014 28.2745 31.4014 28.0872 31.5406C27.804 31.7518 27.756 31.8622 27.7416 32.4047C27.7224 32.9903 27.7896 32.9567 26.9736 32.8079C25.8456 32.6063 24.5687 32.0638 23.6039 31.3822C22.9606 30.9262 21.9814 29.9326 21.5542 29.2989C20.7814 28.1613 20.2533 26.7884 20.1189 25.574L20.0901 25.2812L20.5941 25.262C21.1414 25.2476 21.2518 25.2044 21.463 24.9164C21.6022 24.7291 21.6022 24.2779 21.463 24.0907C21.2518 23.8027 21.1414 23.7595 20.5941 23.7451L20.0901 23.7259L20.1189 23.4331C20.2101 22.6171 20.5365 21.5562 20.935 20.7498C21.9382 18.7481 23.7527 17.1784 25.8504 16.492C26.4696 16.2856 27.1944 16.1272 27.5736 16.108L27.7224 16.1032L27.7416 16.6024Z" fill="#42ADB3"/>
<path d="M27.636 19.1993C25.3655 19.5593 23.5414 21.4026 23.1958 23.6875C22.7494 26.6204 24.7607 29.3661 27.684 29.8077C28.812 29.9805 29.8345 29.8221 30.8761 29.3037C34.0539 27.734 34.8603 23.6587 32.5322 20.9514C31.3609 19.5977 29.4553 18.9113 27.636 19.1993Z" fill="#42ADB3"/>
</g>
<defs>
<filter id="filter0_d_214_3" x="0" y="0" width="58" height="58" filterUnits="userSpaceOnUse" color-interpolation-filters="sRGB">
<feFlood flood-opacity="0" result="BackgroundImageFix"/>
<feColorMatrix in="SourceAlpha" type="matrix" values="0 0 0 0 0 0 0 0 0 0 0 0 0 0 0 0 0 0 127 0" result="hardAlpha"/>
<feOffset dy="4"/>
<feGaussianBlur stdDeviation="2"/>
<feComposite in2="hardAlpha" operator="out"/>
<feColorMatrix type="matrix" values="0 0 0 0 0 0 0 0 0 0 0 0 0 0 0 0 0 0 0.25 0"/>
<feBlend mode="normal" in2="BackgroundImageFix" result="effect1_dropShadow_214_3"/>
<feBlend mode="normal" in="SourceGraphic" in2="effect1_dropShadow_214_3" result="shape"/>
</filter>
</defs>
</svg>
