<svg width="213" height="141" viewBox="0 0 213 141" fill="none" xmlns="http://www.w3.org/2000/svg">
<path d="M64.1789 140.875L62.4969 135.384H63.4605L64.3328 138.554L64.6578 139.731C64.6721 139.674 64.769 139.298 64.9429 138.6L65.8181 135.384H66.7731L67.5969 138.568L67.8706 139.617L68.187 138.56L69.1278 135.384H70.0343L68.3153 140.875H67.3489L66.4737 137.588L66.2628 136.65L65.151 140.875H64.1789Z" fill="#FF5003"/>
<path d="M72.5772 137.602H75.6418C75.6019 137.14 75.485 136.792 75.2912 136.564C74.9947 136.205 74.6098 136.025 74.1395 136.025C73.709 136.025 73.3498 136.168 73.059 136.453C72.7682 136.741 72.6058 137.123 72.5772 137.602ZM75.6332 139.107L76.5939 139.227C76.4429 139.788 76.1606 140.225 75.7501 140.535C75.3396 140.846 74.8151 141 74.1794 141C73.3755 141 72.7369 140.752 72.2694 140.259C71.7961 139.763 71.5624 139.07 71.5624 138.178C71.5624 137.251 71.8018 136.536 72.2751 136.025C72.7511 135.515 73.3698 135.259 74.1281 135.259C74.8607 135.259 75.4622 135.509 75.9269 136.008C76.3915 136.51 76.6253 137.214 76.6253 138.118C76.6253 138.175 76.6225 138.258 76.6196 138.366H72.5231C72.5601 138.97 72.7283 139.432 73.0362 139.754C73.3441 140.073 73.7261 140.233 74.1851 140.233C74.5243 140.233 74.8151 140.145 75.0574 139.965C75.2997 139.786 75.4907 139.5 75.6332 139.107Z" fill="#FF5003"/>
<path d="M83.4443 138.135C83.4443 138.839 83.5925 139.364 83.889 139.711C84.1855 140.059 84.5361 140.236 84.9381 140.236C85.3457 140.236 85.6907 140.068 85.9757 139.734C86.2608 139.404 86.4033 138.896 86.4033 138.212C86.4033 137.462 86.258 136.909 85.97 136.556C85.6793 136.205 85.3229 136.028 84.8981 136.028C84.4848 136.028 84.1398 136.199 83.8605 136.536C83.584 136.875 83.4443 137.408 83.4443 138.135ZM86.3891 140.877V140.182C86.0384 140.726 85.5282 141 84.8525 141C84.4135 141 84.0116 140.88 83.6438 140.638C83.2761 140.396 82.991 140.059 82.7914 139.626C82.589 139.195 82.4893 138.697 82.4893 138.135C82.4893 137.588 82.5776 137.089 82.7629 136.644C82.9454 136.196 83.2191 135.854 83.584 135.615C83.9488 135.378 84.3565 135.259 84.8098 135.259C85.1405 135.259 85.4369 135.33 85.6935 135.47C85.9529 135.609 86.1639 135.792 86.3264 136.014V133.294H87.25V140.877H86.3891Z" fill="#FF5003"/>
<path d="M90.477 137.602H93.5444C93.5017 137.14 93.3848 136.792 93.1909 136.564C92.8945 136.205 92.5096 136.025 92.0392 136.025C91.6116 136.025 91.2524 136.168 90.9588 136.453C90.668 136.741 90.5084 137.123 90.477 137.602ZM93.533 139.107L94.4966 139.227C94.3426 139.788 94.0633 140.225 93.6528 140.535C93.2422 140.846 92.7177 141 92.0791 141C91.2752 141 90.6395 140.752 90.1691 140.259C89.6988 139.763 89.4622 139.07 89.4622 138.178C89.4622 137.251 89.7016 136.536 90.1777 136.025C90.6538 135.515 91.2695 135.259 92.0278 135.259C92.7633 135.259 93.362 135.509 93.8267 136.008C94.2942 136.51 94.5251 137.214 94.5251 138.118C94.5251 138.175 94.5251 138.258 94.5194 138.366H90.4257C90.4599 138.97 90.631 139.432 90.936 139.754C91.2439 140.073 91.6259 140.233 92.0848 140.233C92.4269 140.233 92.7177 140.145 92.9572 139.965C93.1995 139.786 93.3905 139.5 93.533 139.107Z" fill="#FF5003"/>
<path d="M96.7031 133.294H97.6325V140.877H96.7031V133.294Z" fill="#FF5003"/>
<path d="M100.141 135.384H101.07V140.875H100.141V135.384ZM100.141 133.294H101.07V134.366H100.141V133.294Z" fill="#FF5003"/>
<path d="M105.073 140.875L102.983 135.384H103.967L105.144 138.671C105.273 139.027 105.389 139.398 105.498 139.78C105.58 139.489 105.697 139.141 105.843 138.734L107.063 135.384H108.021L105.942 140.875H105.073Z" fill="#FF5003"/>
<path d="M110.606 137.602H113.671C113.631 137.14 113.514 136.792 113.32 136.564C113.024 136.205 112.639 136.025 112.168 136.025C111.738 136.025 111.382 136.168 111.088 136.453C110.797 136.741 110.638 137.123 110.606 137.602ZM113.662 139.107L114.623 139.227C114.472 139.788 114.192 140.225 113.782 140.535C113.371 140.846 112.847 141 112.208 141C111.404 141 110.769 140.752 110.298 140.259C109.828 139.763 109.591 139.07 109.591 138.178C109.591 137.251 109.831 136.536 110.307 136.025C110.78 135.515 111.399 135.259 112.157 135.259C112.892 135.259 113.491 135.509 113.956 136.008C114.423 136.51 114.654 137.214 114.654 138.118C114.654 138.175 114.651 138.258 114.649 138.366H110.555C110.589 138.97 110.757 139.432 111.065 139.754C111.373 140.073 111.755 140.233 112.214 140.233C112.556 140.233 112.847 140.145 113.086 139.965C113.329 139.786 113.52 139.5 113.662 139.107Z" fill="#FF5003"/>
<path d="M116.841 140.875V135.384H117.679V136.216C117.893 135.826 118.089 135.569 118.272 135.447C118.454 135.321 118.651 135.259 118.871 135.259C119.181 135.259 119.501 135.358 119.826 135.561L119.506 136.422C119.278 136.288 119.05 136.222 118.822 136.222C118.62 136.222 118.437 136.282 118.275 136.405C118.112 136.527 117.995 136.698 117.927 136.915C117.824 137.246 117.77 137.608 117.77 138.001V140.875H116.841Z" fill="#FF5003"/>
<path d="M125.419 133.294H126.348V140.877H125.419V133.294Z" fill="#FF5003"/>
<path d="M128.857 135.384H129.789V140.875H128.857V135.384ZM128.857 133.294H129.789V134.366H128.857V133.294Z" fill="#FF5003"/>
<path d="M133.789 140.875L131.699 135.384H132.682L133.863 138.671C133.991 139.027 134.108 139.398 134.213 139.78C134.296 139.489 134.413 139.141 134.561 138.734L135.781 135.384H136.739L134.658 140.875H133.789Z" fill="#FF5003"/>
<path d="M139.322 137.602H142.389C142.349 137.14 142.23 136.792 142.039 136.564C141.742 136.205 141.357 136.025 140.884 136.025C140.456 136.025 140.097 136.168 139.806 136.453C139.516 136.741 139.353 137.123 139.322 137.602ZM142.378 139.107L143.341 139.227C143.187 139.788 142.908 140.225 142.498 140.535C142.087 140.846 141.563 141 140.924 141C140.123 141 139.484 140.752 139.014 140.259C138.544 139.763 138.31 139.07 138.31 138.178C138.31 137.251 138.546 136.536 139.023 136.025C139.499 135.515 140.114 135.259 140.873 135.259C141.608 135.259 142.207 135.509 142.674 136.008C143.139 136.51 143.373 137.214 143.373 138.118C143.373 138.175 143.37 138.258 143.367 138.366H139.271C139.305 138.97 139.476 139.432 139.784 139.754C140.089 140.073 140.471 140.233 140.93 140.233C141.272 140.233 141.563 140.145 141.805 139.965C142.047 139.786 142.238 139.5 142.378 139.107Z" fill="#FF5003"/>
<path d="M145.197 139.235L146.118 139.093C146.169 139.461 146.312 139.743 146.549 139.94C146.785 140.136 147.116 140.233 147.541 140.233C147.965 140.233 148.285 140.148 148.49 139.974C148.698 139.8 148.801 139.595 148.801 139.361C148.801 139.15 148.709 138.985 148.527 138.865C148.399 138.782 148.082 138.677 147.575 138.548C146.893 138.377 146.42 138.226 146.155 138.101C145.893 137.975 145.693 137.801 145.556 137.579C145.42 137.357 145.351 137.112 145.351 136.841C145.351 136.598 145.408 136.37 145.519 136.162C145.631 135.954 145.785 135.78 145.978 135.643C146.121 135.535 146.318 135.444 146.568 135.37C146.819 135.296 147.087 135.259 147.372 135.259C147.806 135.259 148.182 135.321 148.507 135.447C148.835 135.569 149.074 135.737 149.231 135.951C149.385 136.162 149.493 136.444 149.55 136.801L148.641 136.926C148.598 136.641 148.478 136.422 148.282 136.262C148.085 136.105 147.803 136.025 147.441 136.025C147.013 136.025 146.708 136.097 146.526 136.236C146.343 136.379 146.252 136.544 146.252 136.732C146.252 136.855 146.289 136.963 146.366 137.06C146.44 137.16 146.56 137.243 146.722 137.305C146.816 137.342 147.09 137.419 147.543 137.545C148.202 137.722 148.664 137.864 148.923 137.975C149.183 138.089 149.388 138.252 149.533 138.466C149.684 138.679 149.758 138.945 149.758 139.261C149.758 139.572 149.667 139.865 149.485 140.139C149.305 140.413 149.043 140.627 148.704 140.775C148.362 140.926 147.977 141 147.543 141C146.831 141 146.286 140.852 145.913 140.555C145.539 140.259 145.3 139.82 145.197 139.235Z" fill="#FF5003"/>
<path d="M6.61089 126.484V117.704L0 107.98H5.33375L9.19937 113.838L13.4612 107.98H18.145L11.0124 117.524V126.484H6.61089Z" fill="#091B54"/>
<path d="M21.7484 120.6H26.6118L24.2114 114.807L21.7484 120.6ZM14.8353 126.484L24.2628 107.407H24.5421L33.7672 126.484H29.1489L27.9744 123.79H20.4741L19.2739 126.484H14.8353Z" fill="#091B54"/>
<path d="M35.4205 126.484V107.98H39.8363V122.513H47.043V126.484H35.4205Z" fill="#091B54"/>
<path d="M49.526 107.98H53.9418V126.481H49.526V107.98Z" fill="#091B54"/>
<path d="M84.0172 126.484V107.98H95.4117V111.797H88.3047V115.138H94.3911V118.929H88.3047V122.59H95.5143V126.484H84.0172Z" fill="#091B54"/>
<path d="M104.158 111.349H103.431V116.478H104.363C105.478 116.478 106.327 116.253 106.914 115.802C107.502 115.352 107.795 114.705 107.795 113.861C107.795 112.977 107.51 112.339 106.94 111.942C106.37 111.546 105.443 111.349 104.158 111.349ZM99.1433 126.484V107.98H103.904C105.426 107.98 106.607 108.08 107.445 108.282C108.283 108.479 109.024 108.812 109.671 109.283C110.361 109.776 110.894 110.386 111.273 111.113C111.652 111.843 111.841 112.609 111.841 113.416C111.841 114.582 111.544 115.603 110.954 116.478C110.361 117.353 109.509 118.04 108.394 118.533L114.036 126.484H108.996L104.058 119.22H103.431V126.484H99.1433Z" fill="#091B54"/>
<path d="M119.452 117.23C119.452 118.838 119.922 120.184 120.86 121.27C121.801 122.353 122.958 122.895 124.338 122.895C125.727 122.895 126.887 122.356 127.822 121.279C128.757 120.195 129.224 118.847 129.224 117.23C129.224 115.608 128.757 114.251 127.822 113.168C126.887 112.082 125.727 111.54 124.338 111.54C122.958 111.54 121.801 112.082 120.86 113.168C119.922 114.251 119.452 115.608 119.452 117.23ZM114.908 117.23C114.908 115.862 115.145 114.579 115.618 113.385C116.088 112.187 116.784 111.121 117.705 110.175C118.571 109.274 119.577 108.584 120.726 108.102C121.875 107.621 123.078 107.381 124.338 107.381C125.595 107.381 126.804 107.623 127.956 108.108C129.108 108.593 130.131 109.291 131.023 110.203C131.927 111.113 132.608 112.165 133.073 113.359C133.535 114.554 133.766 115.845 133.766 117.23C133.766 118.391 133.606 119.477 133.281 120.5C132.959 121.518 132.48 122.45 131.841 123.291C130.941 124.491 129.832 125.423 128.517 126.088C127.203 126.749 125.809 127.083 124.338 127.083C123.087 127.083 121.889 126.84 120.746 126.356C119.603 125.871 118.588 125.173 117.705 124.263C116.784 123.317 116.088 122.253 115.618 121.065C115.145 119.876 114.908 118.602 114.908 117.23Z" fill="#091B54"/>
<path d="M136.274 121.25C137.415 121.948 138.381 122.439 139.176 122.715C139.972 122.998 140.747 123.14 141.505 123.14C142.269 123.14 142.885 122.972 143.35 122.635C143.812 122.299 144.045 121.869 144.045 121.338C144.045 120.583 143.219 119.731 141.568 118.787C141.306 118.636 141.101 118.516 140.955 118.431L139.707 117.726C138.489 117.039 137.588 116.261 137.001 115.392C136.414 114.525 136.12 113.544 136.12 112.447C136.12 110.956 136.682 109.739 137.805 108.784C138.928 107.832 140.379 107.355 142.155 107.355C142.811 107.355 143.521 107.432 144.288 107.586C145.052 107.74 145.901 107.977 146.839 108.302V112.638C145.947 112.079 145.097 111.643 144.299 111.338C143.501 111.03 142.82 110.876 142.255 110.876C141.637 110.876 141.149 111.013 140.79 111.278C140.434 111.546 140.254 111.911 140.254 112.37C140.254 112.692 140.359 112.994 140.573 113.276C140.787 113.559 141.103 113.812 141.531 114.04L143.701 115.241C145.514 116.244 146.731 117.173 147.355 118.023C147.979 118.872 148.293 119.882 148.293 121.045C148.293 122.849 147.677 124.306 146.449 125.418C145.22 126.527 143.589 127.083 141.557 127.083C140.867 127.083 140.117 127.009 139.31 126.866C138.504 126.721 137.614 126.493 136.645 126.19L136.274 121.25Z" fill="#091B54"/>
<path d="M156.785 111.375H156.184V116.313H156.988C158.103 116.313 158.952 116.099 159.539 115.668C160.127 115.241 160.42 114.619 160.42 113.812C160.42 112.969 160.132 112.353 159.554 111.959C158.975 111.572 158.051 111.375 156.785 111.375ZM151.771 126.484V107.98H156.529C157.991 107.98 159.154 108.088 160.013 108.302C160.871 108.513 161.632 108.869 162.296 109.371C162.986 109.873 163.519 110.5 163.898 111.252C164.277 112.008 164.465 112.803 164.465 113.644C164.465 115.517 163.801 117.002 162.467 118.1C161.136 119.197 159.334 119.745 157.053 119.745C156.814 119.745 156.637 119.742 156.517 119.739C156.398 119.733 156.287 119.728 156.184 119.722V126.484H151.771Z" fill="#091B54"/>
<path d="M169.716 120.6H174.577L172.179 114.807L169.716 120.6ZM162.801 126.484L172.228 107.407H172.51L181.735 126.484H177.117L175.942 123.79H168.439L167.239 126.484H162.801Z" fill="#091B54"/>
<path d="M197.052 113.838C196.254 113.014 195.442 112.401 194.621 111.999C193.8 111.6 192.939 111.401 192.038 111.401C190.473 111.401 189.193 111.939 188.198 113.023C187.203 114.1 186.704 115.489 186.704 117.182C186.704 118.872 187.197 120.244 188.184 121.296C189.17 122.345 190.456 122.872 192.038 122.872C192.973 122.872 193.908 122.675 194.84 122.282C195.769 121.891 196.699 121.307 197.625 120.523L197.346 125.435C196.556 125.974 195.69 126.378 194.749 126.661C193.808 126.94 192.833 127.083 191.821 127.083C190.732 127.083 189.689 126.912 188.688 126.572C187.69 126.23 186.77 125.729 185.926 125.064C184.737 124.129 183.822 122.986 183.189 121.641C182.556 120.292 182.24 118.824 182.24 117.23C182.24 115.862 182.473 114.576 182.941 113.379C183.409 112.179 184.09 111.121 184.982 110.2C185.883 109.283 186.926 108.578 188.109 108.088C189.29 107.601 190.535 107.355 191.847 107.355C192.884 107.355 193.877 107.501 194.82 107.789C195.764 108.08 196.665 108.519 197.525 109.103L197.052 113.838Z" fill="#091B54"/>
<path d="M200.758 126.484V107.98H212.153V111.797H205.046V115.138H211.132V118.929H205.046V122.59H212.255V126.484H200.758Z" fill="#091B54"/>
<path d="M73.1274 107.404H72.848L64.7719 123.739L67.8564 126.484L72.7967 114.807L77.7342 126.484L81.0268 123.739L73.1274 107.404Z" fill="#091B54"/>
<path d="M67.8564 126.484L72.8139 120.902L69.8292 121.82L67.8564 126.484Z" fill="#05102B"/>
<path d="M77.7343 126.484L72.7797 120.902L75.7615 121.82L77.7343 126.484Z" fill="#05102B"/>
<path d="M108.993 47.5524L108.904 45.6909L108.899 45.765L108.631 50.865L109.278 53.3993L108.993 47.5524ZM108.887 53.673L108.54 52.7009L108.272 57.7952L109.278 61.7634L108.993 55.9137L108.887 53.673ZM104.084 59.7879L103.884 60.3409L103.776 62.5873L103.494 68.4342L104.357 65.0247L104.084 59.7879ZM108.334 60.3409L108.163 59.8677L107.89 65.1387L108.719 68.4342L108.437 62.5873L108.334 60.3409ZM103.345 45.7308L103.325 45.3289L103.22 47.5524L102.935 53.3993L103.611 50.7424L103.345 45.7308ZM103.707 52.6125L103.325 53.673L103.22 55.9137L102.935 61.7634L103.97 57.6726L103.707 52.6125ZM107.479 72.9868L107.317 76.0314L106.937 83.3579L107.117 82.3715L107.451 88.7515L108.294 82.993L108.616 80.7808L108.294 78.5629L107.479 72.9868ZM105.096 79.1815L104.762 72.8015L103.918 78.5629L103.593 80.7808L103.918 82.993L104.762 88.7515L105.096 82.3715L105.324 83.6486L105.255 82.2347L105.096 79.1815Z" fill="#FF5003"/>
<path d="M188.335 20.5017C174.286 13.7625 159.608 11.0999 144.604 11.1512C141.329 11.1569 138.062 12.5053 134.823 13.3862C134.051 13.5858 133.281 13.8224 132.511 14.0476C132.511 14.0476 132.469 14.0647 132.386 14.0989C131.365 14.4153 130.351 14.7517 129.339 15.0596C129.321 15.0681 129.304 15.0681 129.296 15.0767C126.599 18.8454 122.28 20.8295 118.528 20.017C117.28 19.7491 116.1 19.1704 115.045 18.3522L108.91 24.507C108.967 24.2875 109.021 24.068 109.073 23.8456C109.301 22.8763 109.628 21.8387 109.705 20.8438C109.936 17.8733 109.526 14.8914 108.311 12.1547C108.018 11.4848 108.058 10.812 108.055 10.1278C109.178 11.1797 110.258 12.2659 111.054 13.6143C111.433 11.7556 110.333 9.36665 108.705 8.49717C107.676 7.29415 107.154 5.59796 105.723 4.8254C104.315 4.0671 103.571 2.96956 103.075 1.55274C102.71 0.506517 101.723 0.21289 100.8 0.0247404C100.677 -0.000916312 100.577 -0.00661781 100.492 0.00763594C100.315 -0.0123193 100.138 0.0732032 99.9672 0.341174C99.628 0.879965 99.3002 1.47292 99.2802 2.10294C99.266 2.40512 99.3258 2.7187 99.4855 3.04083C99.9131 3.89036 100.181 4.71707 100.21 5.60081C100.23 6.11964 100.167 6.65273 100.007 7.22003C99.5681 8.78794 100.426 10.3388 100.58 11.9124C100.073 13.6884 101.028 16.14 102.63 17.1549C102.211 15.6497 102.179 14.116 102.202 12.5766C102.584 12.9472 102.975 13.295 103.26 13.7482C104.585 16.7016 104.796 19.6778 103.303 22.7253C103.16 23.0189 103.023 23.3182 102.884 23.6118L96.9511 18.5347C95.9619 19.2644 94.8758 19.7662 93.727 20.017C89.9754 20.8295 85.6536 18.8454 82.9597 15.0767C82.9511 15.0681 82.934 15.0681 82.9169 15.0596C81.9049 14.7517 80.89 14.4153 79.8695 14.0989C79.7839 14.0647 79.7355 14.0476 79.7355 14.0476C78.9658 13.8224 78.2018 13.5858 77.4321 13.3862C74.1908 12.5053 70.9181 11.1569 67.6454 11.1512C52.6391 11.0999 37.9606 13.7625 23.9121 20.5017C21.5232 21.642 19.1627 22.8963 16.8622 24.0708C19.1884 24.7635 21.7512 24.7151 23.2422 26.2117C24.8386 27.8195 25.4258 30.9098 26.4578 33.3215C31.1273 29.3447 33.5476 30.0574 37.7924 36.9733C44.3007 32.9708 50.31 35.8672 53.8792 44.9098C59.6633 41.1354 63.3066 43.8636 65.1653 51.0646C70.4734 46.452 70.5589 46.452 75.2883 50.7567C79.8039 45.765 80.6135 45.5484 84.616 48.2423C86.258 46.7371 87.8915 45.2462 89.4822 43.7894C89.4907 43.7723 90.7878 42.7518 90.7878 42.7518L92.5724 41.3521C93.1169 40.4398 93.6528 39.5447 94.2116 38.6239C93.3592 38.2134 92.4612 37.8029 91.5518 37.3496C91.5661 37.1643 91.5661 37.15 91.5746 36.9648C92.2788 36.731 92.9743 36.4858 93.4761 36.3205C93.6528 35.5821 93.6528 34.7298 93.9208 34.5787C94.1032 34.4789 94.2629 34.362 94.4054 34.228C95.235 33.4469 95.4089 32.2011 95.7795 31.1122V34.6043C95.7852 34.5872 95.7937 34.5787 95.8023 34.5787C97.4272 33.6636 97.2362 31.4372 98.1314 30.0574C98.1399 30.0488 98.1485 30.0232 98.157 30.0146C98.1827 30.1144 98.2055 30.2256 98.2311 30.3254C98.3167 30.6846 98.3908 31.038 98.482 31.3887C98.6844 32.2753 98.8925 33.1647 99.1035 34.0427C99.4199 35.3997 99.7392 36.7566 100.073 38.1364C100.039 38.1279 100.024 38.1051 100.007 38.0794C100.375 39.7955 100.726 41.3692 100.845 42.8744H100.851V33.4555C101.213 35.0063 101.581 36.5457 101.957 38.1364C101.926 38.1279 101.909 38.1108 101.892 38.0879L103.268 44.2057L103.345 45.7308L104.417 66.1707L106.039 97.3265C106.048 97.3864 106.079 97.4263 106.122 97.4263C106.168 97.4263 106.208 97.3864 106.208 97.3265L107.319 76.0343L108.901 45.765L108.941 45.0096L109.771 40.933C109.845 40.5139 109.928 40.0778 110.022 39.6445C110.096 39.291 110.173 38.9403 110.256 38.5811L110.355 38.0965C110.338 38.1108 110.324 38.1279 110.29 38.1364C110.407 37.6603 110.515 37.19 110.632 36.7224C110.891 35.6249 111.151 34.5445 111.402 33.4555V42.8744H111.41C111.518 41.3692 111.872 39.7955 112.248 38.0794C112.223 38.1051 112.206 38.1279 112.183 38.1364C112.508 36.7566 112.836 35.3997 113.143 34.0427C113.354 33.1647 113.562 32.2753 113.773 31.3887C113.856 31.038 113.933 30.6846 114.016 30.3254C114.047 30.2256 114.064 30.1144 114.09 30.0146C114.107 30.0232 114.116 30.0488 114.124 30.0574C115.011 31.4372 114.828 33.6636 116.442 34.5787C116.45 34.5787 116.467 34.5872 116.479 34.6043V31.1122C116.844 32.2011 117.02 33.4469 117.85 34.228C117.993 34.362 118.152 34.4789 118.337 34.5787C118.597 34.7298 118.597 35.5821 118.779 36.3205C119.281 36.4858 119.968 36.731 120.672 36.9648C120.681 37.15 120.689 37.1643 120.698 37.3496C119.794 37.8029 118.896 38.2134 118.035 38.6239C118.597 39.5447 119.141 40.4398 119.674 41.3521L121.459 42.7518L122.756 43.7723C124.364 45.2462 125.989 46.7371 127.628 48.2423C131.631 45.5484 132.452 45.765 136.959 50.7567C141.697 46.452 141.782 46.452 147.09 51.0646C148.949 43.8636 152.581 41.1354 158.368 44.9098C161.943 35.8672 167.955 32.9708 174.46 36.9733C178.708 30.0574 181.128 29.3447 185.8 33.3215C186.821 30.9098 187.405 27.8195 189.013 26.2117C190.496 24.7151 193.058 24.7635 195.393 24.0708C193.09 22.8963 190.732 21.642 188.335 20.5017Z" fill="#091B54"/>
<path d="M56.1484 138.551H0V137.713H56.1484V138.551Z" fill="#091B54"/>
<path d="M212.255 138.808H155.885V137.97H212.255V138.808Z" fill="#091B54"/>
</svg>
